# xmcd
#
# Track frame offsets: 
#        150
#        19613
#        39499
#        52889
#        62302
#        78031
#        87985
#        99411
#        115607
#        129771
#        145772
#        161395
#
# Disc length: 2319 seconds
#
# Revision: 1
# Processed by: cddbd v1.5.2PL0 Copyright (c) Steve Scherf et al.
# Submitted via: ExactAudioCopyFreeDBPlugin 1.0
#
DISCID=7b090d0c
DTITLE=邓丽君 - DTS51天国情人
DYEAR=2006
DGENRE=DTS
TTITLE0=何处是我的归程
TTITLE1=谁来爱我
TTITLE2=何日君再来
TTITLE3=知道不知道
TTITLE4=露珠儿
TTITLE5=碧兰村的姑娘
TTITLE6=彩红菱
TTITLE7=蔷薇处处开
TTITLE8=百鸟朝凤
TTITLE9=高山青
TTITLE10=月桃花
TTITLE11=彩红妹妹
EXTD=
EXTT0=
EXTT1=
EXTT2=
EXTT3=
EXTT4=
EXTT5=
EXTT6=
EXTT7=
EXTT8=
EXTT9=
EXTT10=
EXTT11=
PLAYORDER=
